<svg width="294" height="57" viewBox="0 0 294 57" fill="none" xmlns="http://www.w3.org/2000/svg">
<rect x="1" y="1" width="292" height="55" rx="27.5" fill="white"/>
<path d="M37.5508 13.065H26.7868V39H37.5508C46.0528 39 49.6408 33.111 49.6408 25.974C49.6408 18.915 46.0528 13.065 37.5508 13.065ZM36.9658 36.387H30.0238V15.678H36.9658C43.9078 15.678 46.2478 19.383 46.2478 25.974C46.2478 32.565 43.8688 36.387 36.9658 36.387ZM62.8758 39.624C69.4278 39.624 72.6648 35.061 72.6648 29.211C72.6648 23.439 69.4278 18.876 62.8758 18.876C56.2848 18.876 53.0478 23.4 53.0478 29.211C53.0478 35.1 56.2848 39.624 62.8758 39.624ZM56.2068 29.25C56.2068 23.751 58.4688 21.411 62.8758 21.411C67.2828 21.411 69.5058 23.751 69.5058 29.25C69.5058 34.71 67.2828 37.089 62.8758 37.089C58.4688 37.089 56.2068 34.71 56.2068 29.25ZM103.524 19.5L98.4541 36.66L92.2921 19.5H89.0551L82.8931 36.66L77.8621 19.5H74.5861L80.5531 39H84.9991L90.5761 23.205L96.1921 39H100.638L106.566 19.5H103.524ZM121.036 18.876C117.175 18.876 114.757 21.06 113.548 24.609V19.5H110.428V39H113.548V31.551C113.548 24.843 115.849 21.489 120.178 21.489C123.025 21.489 124.858 22.737 124.858 26.91V39H127.978V26.559C127.978 21.528 125.911 18.876 121.036 18.876ZM133.241 39H136.361V11.7H133.241V39ZM150.512 39.624C157.064 39.624 160.301 35.061 160.301 29.211C160.301 23.439 157.064 18.876 150.512 18.876C143.921 18.876 140.684 23.4 140.684 29.211C140.684 35.1 143.921 39.624 150.512 39.624ZM143.843 29.25C143.843 23.751 146.105 21.411 150.512 21.411C154.919 21.411 157.142 23.751 157.142 29.25C157.142 34.71 154.919 37.089 150.512 37.089C146.105 37.089 143.843 34.71 143.843 29.25ZM170.436 39.507C174.96 39.507 177.027 36.777 177.768 34.437C177.768 35.88 177.885 37.323 178.041 39H180.888C180.693 37.089 180.654 35.568 180.654 34.164V24.804C180.654 21.294 178.236 18.837 172.893 18.837C167.511 18.837 164.586 21.489 164.469 25.623H167.55C167.745 23.088 169.188 21.294 173.01 21.294C176.793 21.294 177.807 22.815 177.807 24.804C177.807 26.286 176.949 26.832 174.882 27.183L169.929 28.002C165.717 28.704 164.001 30.693 164.001 33.852C164.001 37.557 166.692 39.507 170.436 39.507ZM171.06 37.05C168.759 37.05 167.16 35.958 167.16 33.735C167.16 31.629 168.408 30.615 171.06 30.069L174.297 29.406C175.779 29.094 176.832 28.782 177.807 28.08V29.757C177.807 33.462 175.662 37.05 171.06 37.05ZM201.204 11.7V23.205C199.878 20.436 197.421 18.876 193.833 18.876C187.71 18.876 184.902 23.244 184.902 29.25C184.902 35.217 187.71 39.624 193.833 39.624C197.421 39.624 199.878 38.025 201.204 35.256V39H204.324V11.7H201.204ZM194.457 37.089C190.011 37.089 188.061 34.476 188.061 29.25C188.061 23.985 190.011 21.411 194.457 21.411C198.591 21.411 201.204 23.751 201.204 29.25C201.204 34.749 198.591 37.089 194.457 37.089ZM230.952 39.663C239.259 39.663 242.964 35.256 243.393 28.665H240.078C239.727 33.93 236.763 36.972 230.874 36.972C224.4 36.972 221.397 33.267 221.397 26.013C221.397 18.759 224.478 15.054 230.952 15.054C236.568 15.054 239.454 17.667 240 22.737H243.276C242.652 16.302 239.025 12.363 231.03 12.363C222.099 12.363 218.004 18.213 218.004 26.013C218.004 33.891 222.021 39.663 230.952 39.663ZM265.079 13.065L257.786 33.072C257.396 34.203 257.006 35.373 256.694 36.504C256.382 35.373 255.992 34.203 255.563 33.072L248.309 13.065H244.916L254.315 39H258.995L268.355 13.065H265.079Z" fill="black"/>
<rect x="1" y="1" width="292" height="55" rx="27.5" stroke="black" stroke-width="2"/>
</svg>
