<?xml version="1.0" encoding="utf-8"?>
<!-- Generator: Adobe Illustrator 26.0.3, SVG Export Plug-In . SVG Version: 6.00 Build 0)  -->
<!DOCTYPE svg PUBLIC "-//W3C//DTD SVG 1.1//EN" "http://www.w3.org/Graphics/SVG/1.1/DTD/svg11.dtd" [
	<!ENTITY ns_extend "http://ns.adobe.com/Extensibility/1.0/">
	<!ENTITY ns_ai "http://ns.adobe.com/AdobeIllustrator/10.0/">
	<!ENTITY ns_graphs "http://ns.adobe.com/Graphs/1.0/">
	<!ENTITY ns_vars "http://ns.adobe.com/Variables/1.0/">
	<!ENTITY ns_imrep "http://ns.adobe.com/ImageReplacement/1.0/">
	<!ENTITY ns_sfw "http://ns.adobe.com/SaveForWeb/1.0/">
	<!ENTITY ns_custom "http://ns.adobe.com/GenericCustomNamespace/1.0/">
	<!ENTITY ns_adobe_xpath "http://ns.adobe.com/XPath/1.0/">
]>
<svg version="1.1" id="Livello_1" xmlns:x="&ns_extend;" xmlns:i="&ns_ai;" xmlns:graph="&ns_graphs;"
	 xmlns="http://www.w3.org/2000/svg" xmlns:xlink="http://www.w3.org/1999/xlink" x="0px" y="0px" width="204px" height="62px"
	 viewBox="0 0 204 62" style="enable-background:new 0 0 204 62;" xml:space="preserve">
<metadata>
	<sfw  xmlns="&ns_sfw;">
		<slices></slices>
		<sliceSourceBounds  bottomLeftOrigin="true" height="62" width="204" x="0" y="0"></sliceSourceBounds>
	</sfw>
</metadata>
<g>
	<path d="M29.9,38.5V15.7h-3.2V41h16.4v-2.5H29.9z M46.1,18.9H50v-3.2h-3.9V18.9z M46.5,41h3V22h-3V41z M65.1,21.4
		c-3.8,0-6.1,2.1-7.3,5.6v-5h-3v19h3v-7.3c0-6.5,2.2-9.8,6.5-9.8c2.8,0,4.6,1.2,4.6,5.3V41h3V28.9C71.9,24,69.8,21.4,65.1,21.4z
		 M91,41h3.8l-9.1-11l8.3-7.9V22h-3.8l-8.6,8.2c-0.6,0.6-1.3,1.3-1.8,2V14.4h-3V41h3v-5.4l3.9-3.7L91,41z M105.5,39.3
		c-3.8,0-6.3-1.9-6.5-7.1h15.3c0.1-0.5,0.1-0.8,0.1-1.3c0-5.5-3.2-9.5-8.9-9.5c-6.3,0-9.4,4.4-9.4,10.1c0,5.7,2.9,10.1,9.4,10.1
		c6.3,0,8.5-3.6,8.9-6.5h-2.8C111,37.5,109.3,39.3,105.5,39.3z M105.5,23.7c3.5,0,5.8,1.8,5.9,6.2H99.1
		C99.5,25.4,101.8,23.7,105.5,23.7z M133.6,14.4v11.2c-1.3-2.7-3.7-4.2-7.2-4.2c-6,0-8.7,4.3-8.7,10.1c0,5.8,2.7,10.1,8.7,10.1
		c3.5,0,5.9-1.6,7.2-4.3V41h3V14.4H133.6z M127,39.1c-4.3,0-6.2-2.5-6.2-7.6c0-5.1,1.9-7.6,6.2-7.6c4,0,6.6,2.3,6.6,7.6
		S131,39.1,127,39.1z M155.7,18.3v-2.5h-13.8v2.5h5.4v20.2h-5.4V41h13.8v-2.5h-5.4V18.3H155.7z M170.7,21.4c-3.8,0-6.1,2.1-7.3,5.6
		v-5h-3v19h3v-7.3c0-6.5,2.2-9.8,6.5-9.8c2.8,0,4.6,1.2,4.6,5.3V41h3V28.9C177.4,24,175.4,21.4,170.7,21.4z"/>
</g>
<g>
	<path d="M173,62H31C13.9,62,0,48.1,0,31C0,13.9,13.9,0,31,0h142c17.1,0,31,13.9,31,31C204,48.1,190.1,62,173,62z M31,2
		C15,2,2,15,2,31c0,16,13,29,29,29h142c16,0,29-13,29-29c0-16-13-29-29-29H31z"/>
</g>
</svg>
