<?xml version="1.0" encoding="utf-8"?>
<!-- Generator: Adobe Illustrator 26.0.3, SVG Export Plug-In . SVG Version: 6.00 Build 0)  -->
<!DOCTYPE svg PUBLIC "-//W3C//DTD SVG 1.1//EN" "http://www.w3.org/Graphics/SVG/1.1/DTD/svg11.dtd" [
	<!ENTITY ns_extend "http://ns.adobe.com/Extensibility/1.0/">
	<!ENTITY ns_ai "http://ns.adobe.com/AdobeIllustrator/10.0/">
	<!ENTITY ns_graphs "http://ns.adobe.com/Graphs/1.0/">
	<!ENTITY ns_vars "http://ns.adobe.com/Variables/1.0/">
	<!ENTITY ns_imrep "http://ns.adobe.com/ImageReplacement/1.0/">
	<!ENTITY ns_sfw "http://ns.adobe.com/SaveForWeb/1.0/">
	<!ENTITY ns_custom "http://ns.adobe.com/GenericCustomNamespace/1.0/">
	<!ENTITY ns_adobe_xpath "http://ns.adobe.com/XPath/1.0/">
]>
<svg version="1.1" id="Livello_1" xmlns:x="&ns_extend;" xmlns:i="&ns_ai;" xmlns:graph="&ns_graphs;"
	 xmlns="http://www.w3.org/2000/svg" xmlns:xlink="http://www.w3.org/1999/xlink" x="0px" y="0px" width="207px" height="62px"
	 viewBox="0 0 207 62" style="enable-background:new 0 0 207 62;" xml:space="preserve">
<metadata>
	<sfw  xmlns="&ns_sfw;">
		<slices></slices>
		<sliceSourceBounds  bottomLeftOrigin="true" height="62" width="207" x="0" y="0"></sliceSourceBounds>
	</sfw>
</metadata>
<path d="M54.3,15.7h-5.4l-8.3,22.4l-8.4-22.4h-5.5V41h3.2V18.1L38.4,41h4.3l8.5-22.9V41h3.2V15.7z M68,39.3c-3.8,0-6.3-1.9-6.5-7.1
	h15.3c0.1-0.5,0.1-0.8,0.1-1.3c0-5.5-3.2-9.5-8.9-9.5c-6.3,0-9.4,4.4-9.4,10.1c0,5.7,2.9,10.1,9.4,10.1c6.3,0,8.5-3.6,8.9-6.5H74
	C73.5,37.5,71.8,39.3,68,39.3z M68,23.7c3.5,0,5.8,1.8,5.9,6.2H61.6C62,25.4,64.3,23.7,68,23.7z M79.8,34.7c0.1,4,2.6,7,8.8,7
	c5.1,0,7.8-1.9,7.8-5.8c0-3.1-1.6-5-6-5.6l-4-0.6c-2.4-0.3-3.1-1.5-3.1-2.8c0-1.9,1.3-3.2,4.6-3.2c3.5,0,4.9,1.8,5.1,3.8h3
	c-0.2-3.6-3.1-6.1-8.1-6.1c-4.8,0-7.6,2.2-7.6,5.7c0,2.9,1.9,4.7,5.2,5.1l4.4,0.6c2.4,0.3,3.5,1.3,3.5,3.2c0,2.1-1.3,3.3-4.7,3.3
	c-4.4,0-5.8-2.1-6-4.6H79.8z M99.5,34.7c0.1,4,2.6,7,8.8,7c5.1,0,7.8-1.9,7.8-5.8c0-3.1-1.6-5-6-5.6l-4-0.6
	c-2.4-0.3-3.1-1.5-3.1-2.8c0-1.9,1.3-3.2,4.6-3.2c3.5,0,4.9,1.8,5.1,3.8h3c-0.2-3.6-3.1-6.1-8.1-6.1c-4.8,0-7.6,2.2-7.6,5.7
	c0,2.9,1.9,4.7,5.2,5.1l4.4,0.6c2.4,0.3,3.5,1.3,3.5,3.2c0,2.1-1.3,3.3-4.7,3.3c-4.4,0-5.8-2.1-6-4.6H99.5z M126,41.5
	c4.4,0,6.4-2.7,7.1-4.9c0,1.4,0.1,2.8,0.3,4.4h2.8c-0.2-1.9-0.2-3.3-0.2-4.7v-9.1c0-3.4-2.4-5.8-7.6-5.8c-5.2,0-8.1,2.6-8.2,6.6h3
	c0.2-2.5,1.6-4.2,5.3-4.2c3.7,0,4.7,1.5,4.7,3.4c0,1.4-0.8,2-2.8,2.3l-4.8,0.8c-4.1,0.7-5.8,2.6-5.8,5.7
	C119.7,39.6,122.3,41.5,126,41.5z M126.6,39.1c-2.2,0-3.8-1.1-3.8-3.2c0-2.1,1.2-3,3.8-3.6l3.2-0.6c1.4-0.3,2.5-0.6,3.4-1.3V32
	C133.1,35.6,131.1,39.1,126.6,39.1z M155.9,22v3.3c-1.3-2.4-3.6-3.8-7.1-3.8c-6,0-8.8,3.7-8.8,9.5c0,5.9,2.8,9.6,8.8,9.6
	c3.4,0,5.8-1.2,7.1-3.7V41c0,4.1-1.9,5.6-6.3,5.6c-4.2,0-5.8-1.9-6-4.4h-3c0.3,4.3,3.4,6.8,9,6.8c6.9,0,9.4-2.9,9.4-8V22H155.9z
	 M149.6,38.2c-4.3,0-6.4-2.1-6.4-7.2s2.1-7.1,6.4-7.1c4,0,6.3,2,6.3,7.1C155.9,36.2,153.6,38.2,149.6,38.2z M172.4,39.3
	c-3.8,0-6.3-1.9-6.5-7.1h15.3c0.1-0.5,0.1-0.8,0.1-1.3c0-5.5-3.2-9.5-8.9-9.5c-6.3,0-9.4,4.4-9.4,10.1c0,5.7,2.9,10.1,9.4,10.1
	c6.3,0,8.5-3.6,8.9-6.5h-2.8C177.8,37.5,176.1,39.3,172.4,39.3z M172.3,23.7c3.5,0,5.8,1.8,5.9,6.2h-12.3
	C166.3,25.4,168.7,23.7,172.3,23.7z"/>
<g>
	<path d="M176,62H31C13.9,62,0,48.1,0,31C0,13.9,13.9,0,31,0h145c17.1,0,31,13.9,31,31C207,48.1,193.1,62,176,62z M31,2
		C15,2,2,15,2,31c0,16,13,29,29,29h145c16,0,29-13,29-29c0-16-13-29-29-29H31z"/>
</g>
</svg>
