<?xml version="1.0" encoding="utf-8"?>
<!-- Generator: Adobe Illustrator 26.1.0, SVG Export Plug-In . SVG Version: 6.00 Build 0)  -->
<!DOCTYPE svg PUBLIC "-//W3C//DTD SVG 1.1//EN" "http://www.w3.org/Graphics/SVG/1.1/DTD/svg11.dtd" [
	<!ENTITY ns_extend "http://ns.adobe.com/Extensibility/1.0/">
	<!ENTITY ns_ai "http://ns.adobe.com/AdobeIllustrator/10.0/">
	<!ENTITY ns_graphs "http://ns.adobe.com/Graphs/1.0/">
	<!ENTITY ns_vars "http://ns.adobe.com/Variables/1.0/">
	<!ENTITY ns_imrep "http://ns.adobe.com/ImageReplacement/1.0/">
	<!ENTITY ns_sfw "http://ns.adobe.com/SaveForWeb/1.0/">
	<!ENTITY ns_custom "http://ns.adobe.com/GenericCustomNamespace/1.0/">
	<!ENTITY ns_adobe_xpath "http://ns.adobe.com/XPath/1.0/">
]>
<svg version="1.1" id="Livello_1" xmlns:x="&ns_extend;" xmlns:i="&ns_ai;" xmlns:graph="&ns_graphs;"
	 xmlns="http://www.w3.org/2000/svg" xmlns:xlink="http://www.w3.org/1999/xlink" x="0px" y="0px" width="163.8px" height="40px"
	 viewBox="0 0 163.8 40" style="enable-background:new 0 0 163.8 40;" xml:space="preserve">
<style type="text/css">
	.st0{enable-background:new    ;}
</style>
<metadata>
	<sfw  xmlns="&ns_sfw;">
		<slices></slices>
		<sliceSourceBounds  bottomLeftOrigin="true" height="27.4" width="163.8" x="17.2" y="6.4"></sliceSourceBounds>
	</sfw>
</metadata>
<g class="st0">
	<path d="M11.6,22.7h4.2c-0.4,2.4-2.3,5-7.7,5c-5.8,0-8.1-3.8-8.1-8c0-4.4,2.5-8,8.1-8c5.7,0,7.8,3.7,7.8,7.9c0,0.5,0,0.9-0.1,1.2
		H4.4c0.3,2.8,1.7,3.8,3.8,3.8C10.1,24.7,11.1,23.8,11.6,22.7z M4.4,18.2h7.2c-0.2-2.3-1.3-3.4-3.5-3.4C6,14.8,4.7,15.6,4.4,18.2z"
		/>
	<path d="M43.7,18v9.2h-4.4v-8.6c0-2.2-0.9-3.3-2.7-3.3c-2.2,0-3.4,1.5-3.4,5.1v6.8h-4.4v-8.6c0-2.2-0.9-3.3-2.7-3.3
		c-2.2,0-3.4,1.5-3.4,5.1v6.8h-4.4v-15h4.4V15c0.9-1.9,2.5-3.2,5.1-3.2c2.7,0,4.3,1.3,4.9,3.5c0.9-2.1,2.5-3.5,5.4-3.5
		C42,11.8,43.7,14.1,43.7,18z"/>
	<path d="M49.9,22.4c0.1,1.4,1.2,2.6,3.5,2.6c2,0,2.7-0.7,2.7-1.7c0-0.9-0.4-1.6-2.1-1.8L50.6,21c-2.8-0.4-4.4-1.9-4.4-4.4
		c0-3.3,2.8-4.9,6.8-4.9s6.8,1.6,7,4.9h-4.1c-0.1-1.2-1.1-2.1-2.9-2.1c-1.9,0-2.7,0.7-2.7,1.7c0,0.7,0.4,1.3,1.9,1.5l3.1,0.4
		c3.6,0.5,4.9,2,4.9,4.6c0,2.9-1.9,5-7,5c-5.3,0-7.3-2.5-7.4-5.4L49.9,22.4L49.9,22.4z"/>
	<path d="M64.1,15.6h-2.7v-2.1l2.7-1.3v-1.4c0-2.8,1.4-4.6,5.1-4.6H73v3.2h-5.2v2.8h4.4v3.4h-3.7v11.6h-4.4
		C64.1,27.2,64.1,15.6,64.1,15.6z"/>
	<path d="M84.8,12v4.3h-1.5c-3,0-4,1.6-4,5v5.9h-4.4v-15h4.3v3.2c0.7-2.1,2.1-3.5,4.6-3.5h1V12z"/>
	<path d="M97.5,22.7h4.3c-0.4,2.4-2.3,5-7.7,5c-5.8,0-8.1-3.8-8.1-8c0-4.4,2.5-8,8.1-8c5.7,0,7.8,3.7,7.8,7.9c0,0.5,0,0.9-0.1,1.2
		H90.4c0.3,2.8,1.7,3.8,3.8,3.8C96.1,24.7,97.1,23.8,97.5,22.7z M90.4,18.2h7.2c-0.2-2.3-1.3-3.4-3.5-3.4
		C92,14.8,90.7,15.6,90.4,18.2z"/>
	<path d="M120.4,12.3v14.4c0,4.6-2.3,6.9-8.4,6.9c-5.1,0-7.7-2.3-7.9-5.7h4.3c0.2,1.5,1.2,2.5,3.7,2.5c2.6,0,3.8-0.9,3.8-3.3v-2.7
		c-1,1.5-2.7,2.4-5.2,2.4c-4.9,0-7-3.4-7-7.5c0-4.2,2.1-7.5,7-7.5c2.5,0,4.2,0.9,5.2,2.4v-2L120.4,12.3L120.4,12.3z M116,19.4
		c0-2.9-1-4.1-3.8-4.1s-4,1.1-4,4.1s1.1,4.1,4,4.1C114.9,23.5,116,22.2,116,19.4z"/>
	<path d="M122.8,19.7c0-4.1,2.3-8,8.3-8s8.3,3.8,8.3,8s-2.3,8-8.3,8S122.8,23.9,122.8,19.7z M131.1,24.3c2.7,0,3.9-1.2,3.9-4.5
		s-1.1-4.5-3.9-4.5c-2.7,0-3.8,1.2-3.8,4.5C127.2,23.1,128.4,24.3,131.1,24.3z"/>
	<path d="M141.8,6.3h4.4v21h-4.4V6.3z"/>
	<path d="M149.2,23.3c0-2.4,1.1-4,4.9-4.6l3.5-0.6c1.4-0.2,1.9-0.6,1.9-1.5c0-1-0.6-1.7-2.6-1.7s-3,0.8-3.1,2.3h-4.3
		c0.1-3.2,2.8-5.4,7.3-5.4s6.8,2,6.8,5.1v6.5c0,1.4,0.1,2.6,0.2,3.9h-3.9c-0.1-1-0.2-2-0.2-3.2c-0.7,2.1-2.5,3.6-5.5,3.6
		C151.1,27.6,149.2,26,149.2,23.3z M159.5,20.1v-0.7c-0.8,0.5-1.5,0.8-2.5,1l-1.3,0.3c-1.6,0.4-2.2,1-2.2,2.1c0,1.2,0.9,1.8,2.1,1.8
		C158,24.6,159.5,22.9,159.5,20.1z"/>
</g>
</svg>
